<?xml version="1.0" standalone="no"?>
<!DOCTYPE svg PUBLIC "-//W3C//DTD SVG 1.1//EN" "http://www.w3.org/Graphics/SVG/1.1/DTD/svg11.dtd">
<svg t="1774058555547" class="icon" viewBox="0 0 1024 1024" version="1.1" xmlns="http://www.w3.org/2000/svg" p-id="5847" xmlns:xlink="http://www.w3.org/1999/xlink" width="32" height="32">
<path d="M512 512m-512 0a512 512 0 1 0 1024 0 512 512 0 1 0-1024 0Z" fill="#FA7402" p-id="5848"></path>
<path d="M251.562667 777.088c113.237333 113.237333 285.397333 124.714667 384.512 25.6 99.072-99.072 87.594667-271.232-25.642667-384.469333-113.28-113.28-285.44-124.757333-384.512-25.642667-99.114667 99.114667-87.637333 271.232 25.6 384.512z" fill="#FFFFFF" p-id="5849"></path>
<path d="M438.4 569.045333c56.917333 31.573333 122.752 21.632 146.986667-22.186666 24.32-43.733333-2.176-104.789333-59.093334-136.362667-56.917333-31.530667-122.709333-21.632-146.986666 22.186667-24.277333 43.733333 2.218667 104.832 59.093333 136.362666z" fill="#FA7402" p-id="5850"></path>
<path d="M682.538667 359.68c20.522667 56.448 75.306667 88.32 122.368 71.253333 47.018667-17.152 68.48-76.8 47.957333-133.205333-20.565333-56.448-75.349333-88.32-122.368-71.253333-47.018667 17.152-68.522667 76.8-47.957333 133.205333z" fill="#FFFFFF" p-id="5851"></path>
</svg>
