<svg width="1024" height="1024" viewBox="0 0 1024 1024" fill="none" xmlns="http://www.w3.org/2000/svg">
<path d="M417.616 76.8732C375.224 86.2973 333.288 99.4201 293.972 119.209C294.871 153.925 297.115 187.188 301.665 220.976C286.396 230.758 270.35 239.154 256.089 250.605C241.599 261.753 226.803 272.416 213.683 285.453C187.471 268.116 159.726 251.822 131.146 237.44C100.338 270.596 71.5308 306.382 47.9995 346.426C66.4926 375.455 86.3329 404.636 104.703 427.389C104.857 529.398 104.476 642.657 104.703 739.348C104.703 882.433 286.214 951.207 511.727 951.998H512.002H512.277C737.791 951.207 919.243 882.433 919.243 739.348C919.382 634.896 919.288 519.884 919.302 427.389C940.518 400.68 960.607 371.214 975.999 346.426C952.477 306.382 923.655 270.596 892.848 237.44C864.276 251.822 836.523 268.116 810.311 285.453C797.194 272.416 782.421 261.753 767.91 250.606C753.653 239.154 737.59 230.758 722.35 220.976C726.888 187.188 729.129 153.925 730.033 119.209C690.713 99.4202 648.78 86.2974 606.367 76.8733C589.434 105.333 573.949 136.155 560.462 166.284C544.47 163.612 528.403 162.621 512.315 162.429V162.402C512.202 162.402 512.098 162.429 512.002 162.429C511.902 162.429 511.8 162.402 511.7 162.402V162.429C495.583 162.621 479.528 163.612 463.531 166.284C450.053 136.155 434.574 105.333 417.616 76.8732Z" stroke="white" stroke-width="64.8567" stroke-linejoin="round"/>
<path d="M919.241 673.152C919.241 673.152 917.888 664.852 917.097 664.927L766.485 679.458C754.501 680.616 745.193 690.173 744.353 702.182L740.215 761.487L623.695 769.8L615.77 716.052C614.005 704.097 603.565 695.085 591.481 695.085H432.519C420.439 695.085 409.999 704.097 408.234 716.052L400.304 769.8L283.785 761.487L279.647 702.182C278.806 690.169 269.499 680.612 257.514 679.454L106.828 664.927C106.049 664.852 105.479 673.16 104.701 673.16L104.497 705.754L232.114 726.334L236.293 786.167C237.138 798.28 246.912 808.075 259.034 808.945L419.507 820.392C420.114 820.434 420.714 820.459 421.313 820.459C433.372 820.459 443.795 811.442 445.56 799.487L453.715 744.183H570.289L578.443 799.487C580.204 811.438 590.64 820.454 602.716 820.454C603.307 820.454 603.898 820.434 604.476 820.392L764.97 808.945C777.087 808.075 786.865 798.28 787.71 786.167L791.885 726.334L919.449 705.662L919.241 673.152Z" fill="white"/>
<path d="M104.699 427.387V625.17V650.291V673.152C105.148 673.156 105.598 673.173 106.043 673.214L256.713 687.742C264.606 688.504 270.791 694.856 271.341 702.765L275.986 769.275L407.416 778.653L416.47 717.267C417.644 709.308 424.471 703.41 432.521 703.41H591.483C599.529 703.41 606.356 709.308 607.53 717.267L616.583 778.653L748.018 769.275L752.659 702.765C753.213 694.856 759.394 688.508 767.287 687.742L917.898 673.214C918.344 673.173 918.789 673.156 919.239 673.152V653.542L919.301 653.521V427.387C940.517 400.678 960.607 371.216 976 346.429C952.477 306.384 923.655 270.598 892.848 237.443C864.275 251.825 836.523 268.117 810.311 285.455C797.195 272.417 782.422 261.753 767.911 250.605C753.654 239.154 737.586 230.758 722.347 220.976C726.884 187.188 729.128 153.925 730.031 119.208C690.711 99.4193 648.781 86.2988 606.368 76.8746C589.435 105.334 573.95 136.154 560.463 166.283C544.47 163.611 528.403 162.62 512.314 162.429V162.404C512.202 162.404 512.098 162.429 512.002 162.429C511.902 162.429 511.798 162.404 511.698 162.404V162.429C495.58 162.62 479.525 163.611 463.528 166.283C450.05 136.154 434.573 105.334 417.615 76.8746C375.223 86.2988 333.289 99.4193 293.973 119.208C294.872 153.925 297.116 187.188 301.665 220.976C286.397 230.758 270.35 239.154 256.089 250.605C241.599 261.753 226.801 272.417 213.68 285.455C187.468 268.117 159.724 251.825 131.144 237.443C100.336 270.598 71.5311 306.384 47.9999 346.429C66.4929 375.457 86.3291 404.634 104.699 427.387Z" fill="#478CBF"/>
<path d="M784.071 718.723L779.405 785.587C778.843 793.646 772.433 800.061 764.374 800.639L603.884 812.091C603.493 812.12 603.102 812.132 602.715 812.132C594.739 812.132 587.858 806.28 586.68 798.271L577.477 735.856H446.525L437.322 798.271C436.085 806.671 428.576 812.711 420.118 812.091L259.628 800.639C251.569 800.061 245.159 793.646 244.597 785.587L239.931 718.723L104.45 705.661C104.513 720.222 104.7 736.173 104.7 739.349C104.7 882.435 286.211 951.209 511.724 952H511.999H512.278C737.791 951.209 919.24 882.435 919.24 739.349C919.24 736.115 919.435 720.23 919.502 705.661L784.071 718.723Z" fill="#478CBF"/>
<path d="M389.215 527.151C389.215 577.319 348.567 617.959 298.416 617.959C248.29 617.959 207.629 577.319 207.629 527.151C207.629 477.017 248.29 436.398 298.416 436.398C348.567 436.398 389.215 477.017 389.215 527.151Z" fill="white"/>
<path d="M367.367 532.537C367.367 565.813 340.397 592.783 307.096 592.783C273.812 592.783 246.826 565.813 246.826 532.537C246.826 499.261 273.812 472.267 307.096 472.267C340.397 472.267 367.367 499.261 367.367 532.537Z" fill="#414042"/>
<path d="M511.993 626.22C495.851 626.22 482.768 614.323 482.768 599.658V516.069C482.768 501.416 495.851 489.507 511.993 489.507C528.136 489.507 541.248 501.416 541.248 516.069V599.658C541.248 614.323 528.136 626.22 511.993 626.22Z" fill="white"/>
<path d="M634.787 527.151C634.787 577.319 675.435 617.959 725.594 617.959C775.716 617.959 816.373 577.319 816.373 527.151C816.373 477.017 775.716 436.398 725.594 436.398C675.435 436.398 634.787 477.017 634.787 527.151Z" fill="white"/>
<path d="M656.641 532.537C656.641 565.813 683.602 592.783 716.878 592.783C750.187 592.783 777.148 565.813 777.148 532.537C777.148 499.261 750.187 472.267 716.878 472.267C683.602 472.267 656.641 499.261 656.641 532.537Z" fill="#414042"/>
<path d="M782.01 781.854L802.033 794.288L792.878 772.57L791.205 768.601L787.311 759.362L779.548 765.707L777.511 767.372L769.384 774.013L778.3 779.55L782.01 781.854Z" fill="white" stroke="white" stroke-width="15"/>
<path d="M734.615 784.906H619.109C604.287 784.906 592.24 796.954 592.24 811.775V927.28C592.24 942.102 604.287 954.148 619.109 954.148H734.615C749.437 954.148 761.483 942.102 761.483 927.28V811.775C761.483 796.954 749.437 784.906 734.615 784.906ZM726.561 919.225H627.163V819.829H726.561V919.225Z" fill="white" stroke="white" stroke-width="15"/>
<path d="M590.986 752.798V752.798C590.986 767.618 603.031 779.665 617.853 779.665H733.36C748.181 779.665 760.228 767.619 760.228 752.798V637.291C760.228 622.47 748.181 610.424 733.36 610.424H617.853C603.032 610.424 590.986 622.47 590.986 637.291V752.798ZM625.909 645.345H725.306V744.743H625.909V645.345Z" fill="white" stroke="white" stroke-width="15"/>
<path d="M921.02 783.652H805.514C790.693 783.652 778.656 795.702 778.656 810.52V926.025C778.656 940.843 790.693 952.893 805.514 952.893H921.02C935.843 952.893 947.897 940.85 947.897 926.025V810.52C947.897 795.695 935.843 783.652 921.02 783.652ZM912.975 917.971H813.579V818.574H912.975V917.971Z" fill="white" stroke="white" stroke-width="15"/>
<path d="M948.994 672.177L948.993 672.177L881.326 604.51L881.326 604.51L881.318 604.502C876.451 599.65 869.948 596.963 863.076 596.963C856.199 596.963 849.701 599.654 844.824 604.512L844.814 604.522L777.19 672.157C777.188 672.159 777.186 672.161 777.184 672.163C772.304 677.031 769.601 683.546 769.601 690.438C769.601 697.328 772.302 703.845 777.174 708.704C777.175 708.705 777.177 708.706 777.178 708.707L844.815 776.354L844.815 776.355C849.681 781.221 856.19 783.913 863.072 783.913C869.95 783.913 876.453 781.225 881.33 776.363L881.338 776.355L949.005 708.688L949.014 708.68C959.06 698.603 959.056 682.241 948.994 672.177ZM809.948 690.438L863.077 637.301L916.214 690.438L863.077 743.575L809.948 690.438Z" fill="white" stroke="white" stroke-width="15"/>
<path d="M735.22 785.375H619.521C604.68 785.375 592.619 797.437 592.619 812.279V927.976C592.619 942.817 604.682 954.876 619.521 954.876H735.22C750.058 954.876 762.119 942.816 762.119 927.976V812.279C762.119 797.439 750.06 785.375 735.22 785.375Z" fill="#478CBF" stroke="white" stroke-width="15"/>
<path d="M591.362 753.2V753.2C591.362 768.04 603.425 780.099 618.265 780.099H733.959C748.799 780.099 760.862 768.04 760.862 753.2V637.502C760.862 622.663 748.8 610.603 733.959 610.603H618.265C603.425 610.603 591.362 622.662 591.362 637.502V753.2Z" fill="#478CBF" stroke="white" stroke-width="15"/>
<path d="M948.838 811.022V811.022C948.838 796.179 936.77 784.12 921.928 784.12H806.23C791.393 784.12 779.341 796.186 779.341 811.022V926.716C779.341 941.552 791.392 953.619 806.23 953.619H921.928C936.77 953.619 948.838 941.56 948.838 926.716V811.022Z" fill="#478CBF" stroke="white" stroke-width="15"/>
<path d="M882.162 604.681L882.162 604.681L882.156 604.675C877.283 599.814 870.771 597.122 863.887 597.122C857.002 597.122 850.492 599.816 845.612 604.685L845.606 604.691L777.871 672.433C777.869 672.435 777.867 672.437 777.866 672.439C772.978 677.312 770.271 683.835 770.271 690.737C770.271 697.636 772.975 704.161 777.853 709.023C777.854 709.025 777.856 709.027 777.858 709.029L845.607 776.789L845.607 776.79C850.479 781.661 856.995 784.357 863.886 784.357C870.774 784.357 877.285 781.663 882.165 776.796L882.171 776.789L949.953 709.007L949.963 708.998C960.016 698.909 960.014 682.529 949.94 672.455L882.162 604.681ZM917.133 690.738L863.889 743.981L810.655 690.738L863.89 637.498L917.133 690.738Z" fill="#478CBF" stroke="white" stroke-width="15"/>
<path d="M782.546 783.619L802.566 796.054L793.415 774.336L791.743 770.366L787.85 761.127L780.086 767.471L778.048 769.136L769.921 775.776L778.836 781.314L782.546 783.619Z" fill="white" stroke="white" stroke-width="15"/>
</svg>
